<?xml version="1.0" encoding="UTF-8" standalone="no"?>
<svg width="341px" height="111px" viewBox="0 0 341 111" version="1.1" xmlns="http://www.w3.org/2000/svg"
     xmlns:xlink="http://www.w3.org/1999/xlink">
    <!-- Generator: Sketch 39.1 (31720) - http://www.bohemiancoding.com/sketch -->
    <title>PP_Horizontal_white</title>
    <desc>Created with Sketch.</desc>
    <defs></defs>
    <g id="Page-1" stroke="none" stroke-width="1" fill="none" fill-rule="evenodd">
        <g id="PP_Horizontal_white">
            <g id="Page-1" transform="translate(0.000000, 1.000000)">
                <g id="Text" transform="translate(119.000000, 22.000000)" fill="#FFFFFF">
                    <path d="M9.9422,53.794 C9.9422,52.116 8.8152,51.439 6.5382,51.439 L4.9092,51.439 C4.6102,51.439 4.5342,51.541 4.5342,51.815 L4.5342,55.872 C4.5342,56.146 4.6102,56.246 4.9092,56.246 L6.5382,56.246 C8.7412,56.246 9.9422,55.445 9.9422,53.794 M0.8282,47.433 L6.7132,47.433 C11.8452,47.433 14.4482,49.512 14.4482,53.767 C14.4482,58.051 11.6452,60.252 6.5382,60.252 L4.9092,60.252 C4.6102,60.252 4.5342,60.354 4.5342,60.629 L4.5342,64.31 C4.5342,64.759 4.3342,64.96 3.8582,64.96 L0.8282,64.96 C0.3782,64.96 0.1772,64.759 0.1772,64.31 L0.1772,48.084 C0.1772,47.634 0.3782,47.433 0.8282,47.433"
                          id="Fill-8"></path>
                    <path d="M26.6283,53.4179 C26.6283,51.9659 25.5763,51.4389 23.5743,51.4389 L21.6703,51.4389 C21.3713,51.4389 21.2963,51.5419 21.2963,51.8159 L21.2963,55.0959 C21.2963,55.3969 21.3713,55.4959 21.6703,55.4959 L23.5743,55.4959 C25.6763,55.4959 26.6283,54.7939 26.6283,53.4179 M17.5893,47.4329 L23.7493,47.4329 C28.6823,47.4329 31.1343,49.3879 31.1343,53.1929 C31.1343,55.6959 29.9333,57.3489 28.1073,58.2749 L31.9873,64.1589 C32.1133,64.3339 32.1623,64.4839 32.1623,64.6099 C32.1623,64.8339 31.9613,64.9599 31.5863,64.9599 L28.2063,64.9599 C27.5053,64.9599 27.1803,64.7589 26.8303,64.2099 L23.9983,59.6529 C23.8233,59.3759 23.6733,59.3009 23.3493,59.3009 L21.6703,59.3009 C21.3713,59.3009 21.2963,59.3759 21.2963,59.6769 L21.2963,64.3089 C21.2963,64.7589 21.0943,64.9599 20.6193,64.9599 L17.5893,64.9599 C17.1403,64.9599 16.9383,64.7589 16.9383,64.3089 L16.9383,48.0839 C16.9383,47.6349 17.1403,47.4329 17.5893,47.4329"
                          id="Fill-10"></path>
                    <path d="M47.3561,56.2221 C47.3561,53.1161 45.2291,51.1141 42.4731,51.1141 C39.6951,51.1141 37.6171,53.1431 37.6171,56.2221 C37.6171,59.2761 39.6701,61.2801 42.4491,61.2801 C45.2021,61.2801 47.3561,59.2521 47.3561,56.2221 M42.4731,47.1081 C47.9321,47.1081 51.8621,50.8881 51.8621,56.1981 C51.8621,61.5291 47.9081,65.2861 42.4241,65.2861 C37.0401,65.2861 33.1101,61.5541 33.1101,56.2461 C33.1101,50.9151 37.0671,47.1081 42.4731,47.1081"
                          id="Fill-12"></path>
                    <path d="M54.1135,61.1816 C54.3895,61.1816 54.7645,61.2576 55.2155,61.2576 C56.3175,61.2576 57.0685,60.4046 57.0685,58.7776 L57.0685,48.0836 C57.0685,47.6346 57.2695,47.4326 57.7455,47.4326 L60.7735,47.4326 C61.2235,47.4326 61.4255,47.6346 61.4255,48.0836 L61.4255,59.0776 C61.4255,62.8846 59.8725,65.2636 55.7905,65.2636 C55.1155,65.2636 54.3385,65.2116 53.8625,65.0856 C53.3885,64.9626 53.2875,64.7606 53.3395,64.2606 L53.6135,61.8066 C53.6635,61.3306 53.7885,61.1816 54.1135,61.1816"
                          id="Fill-14"></path>
                    <path d="M66.2031,47.4333 L76.7191,47.4333 C77.1701,47.4333 77.3951,47.6353 77.3951,48.0843 L77.3951,50.7883 C77.3951,51.2643 77.1701,51.4393 76.7191,51.4393 L70.2851,51.4393 C69.9841,51.4393 69.9081,51.5413 69.9081,51.8163 L69.9081,53.7683 C69.9081,54.0693 69.9841,54.1433 70.2851,54.1433 L75.8931,54.1433 C76.3421,54.1433 76.5441,54.3433 76.5441,54.8193 L76.5441,57.4993 C76.5441,57.9503 76.3421,58.1493 75.8931,58.1493 L70.2851,58.1493 C69.9841,58.1493 69.9081,58.2493 69.9081,58.5263 L69.9081,60.5773 C69.9081,60.8543 69.9841,60.9543 70.2851,60.9543 L76.7431,60.9543 C77.1941,60.9543 77.4201,61.1293 77.4201,61.6053 L77.4201,64.3093 C77.4201,64.7583 77.1941,64.9603 76.7431,64.9603 L66.2031,64.9603 C65.7521,64.9603 65.5521,64.7583 65.5521,64.3093 L65.5521,48.0843 C65.5521,47.6353 65.7521,47.4333 66.2031,47.4333"
                          id="Fill-16"></path>
                    <path d="M95.6612,62.3552 C95.6612,62.5312 95.5362,62.7062 95.2842,62.9322 C93.5342,64.3842 91.2542,65.2862 88.7272,65.2862 C83.3932,65.2862 79.4112,61.4802 79.4112,56.2972 C79.4112,50.9892 83.4172,47.1082 88.9262,47.1082 C91.4802,47.1082 93.6822,48.0352 95.3862,49.4632 C95.5852,49.6382 95.6852,49.7882 95.6852,49.9392 C95.6852,50.0872 95.6372,50.2132 95.5112,50.3882 L94.0592,52.4412 C93.9082,52.6672 93.7582,52.7672 93.5832,52.7672 C93.4322,52.7672 93.2572,52.6922 93.0832,52.5662 C91.9322,51.7402 90.5292,51.1142 88.9022,51.1142 C86.0222,51.1142 83.9202,53.1682 83.9202,56.2222 C83.9202,59.1762 85.9982,61.2802 88.9022,61.2802 C90.5792,61.2802 91.9562,60.7042 93.1332,59.8022 C93.3322,59.6522 93.4842,59.5772 93.6332,59.5772 C93.8082,59.5772 93.9342,59.6762 94.0832,59.8782 L95.5112,61.9292 C95.6122,62.0812 95.6612,62.2302 95.6612,62.3552"
                          id="Fill-18"></path>
                    <path d="M101.6872,51.4394 L97.7312,51.4394 C97.2802,51.4394 97.0792,51.2404 97.0792,50.7884 L97.0792,48.0844 C97.0792,47.6344 97.2802,47.4334 97.7312,47.4334 L110.7512,47.4334 C111.2022,47.4334 111.4012,47.6344 111.4012,48.0844 L111.4012,50.7884 C111.4012,51.2404 111.2022,51.4394 110.7512,51.4394 L106.7952,51.4394 C106.5192,51.4394 106.4182,51.5414 106.4182,51.8164 L106.4182,64.3094 C106.4182,64.7584 106.2202,64.9604 105.7692,64.9604 L102.7132,64.9604 C102.2632,64.9604 102.0642,64.7584 102.0642,64.3094 L102.0642,51.8164 C102.0642,51.5414 101.9612,51.4394 101.6872,51.4394"
                          id="Fill-20"></path>
                    <path d="M19.7093,14.0836 C19.7093,10.7296 17.4553,9.3746 12.9013,9.3746 L9.6473,9.3746 C9.0463,9.3746 8.8953,9.5796 8.8953,10.1276 L8.8953,18.2386 C8.8953,18.7866 9.0463,18.9856 9.6473,18.9856 L12.9013,18.9856 C17.3073,18.9856 19.7093,17.3846 19.7093,14.0836 M1.4873,1.3656 L13.2483,1.3656 C23.5113,1.3656 28.7183,5.5226 28.7183,14.0306 C28.7183,22.5946 23.1133,26.9956 12.9013,26.9956 L9.6473,26.9956 C9.0463,26.9956 8.8953,27.1996 8.8953,27.7486 L8.8953,35.1076 C8.8953,36.0066 8.4973,36.4076 7.5453,36.4076 L1.4873,36.4076 C0.5863,36.4076 0.1853,36.0066 0.1853,35.1076 L0.1853,2.6676 C0.1853,1.7686 0.5863,1.3656 1.4873,1.3656"
                          id="Fill-22"></path>
                    <path d="M60.5899,18.938 C60.5899,12.729 56.3349,8.725 50.8279,8.725 C45.2709,8.725 41.1169,12.782 41.1169,18.938 C41.1169,25.044 45.2229,29.05 50.7749,29.05 C56.2839,29.05 60.5899,24.996 60.5899,18.938 M50.8279,0.716 C61.7409,0.716 69.5989,8.275 69.5989,18.89 C69.5989,29.548 61.6929,37.059 50.7269,37.059 C39.9659,37.059 32.1079,29.599 32.1079,18.986 C32.1079,8.328 40.0139,0.716 50.8279,0.716"
                          id="Fill-24"></path>
                    <path d="M70.0432,2.1675 C70.0432,1.6185 70.4412,1.3665 71.2412,1.3665 L77.5512,1.3665 C78.8002,1.3665 79.1532,1.6185 79.6542,2.9205 L85.6592,18.5365 L92.3662,3.5705 C93.1672,1.8175 93.6212,1.3665 94.3182,1.3665 C95.0232,1.3665 95.4212,1.8175 96.2212,3.5705 L102.8812,18.3855 L108.8362,2.9205 C109.3372,1.6185 109.7402,1.3665 110.9892,1.3665 L117.2462,1.3665 C118.0472,1.3665 118.4472,1.6185 118.4472,2.1675 C118.4472,2.3665 118.3992,2.6685 118.2482,2.9685 L105.4822,34.6055 C104.6342,36.7075 104.2312,37.2095 103.4832,37.2095 C102.7782,37.2095 102.4312,36.7075 101.5272,34.7565 L94.2702,18.5895 L87.0142,34.7565 C86.1602,36.7075 85.7602,37.2095 85.0622,37.2095 C84.3092,37.2095 83.9062,36.7075 83.0582,34.6055 L70.2422,2.9685 C70.0912,2.6685 70.0432,2.3665 70.0432,2.1675"
                          id="Fill-26"></path>
                    <path d="M145.9764,18.7386 C145.9764,13.0806 142.2244,9.3776 135.1144,9.3776 L131.6624,9.3776 C131.0604,9.3776 130.9094,9.5786 130.9094,10.1276 L130.9094,27.6466 C130.9094,28.1986 131.0604,28.3996 131.6624,28.3996 L134.9124,28.3996 C142.2244,28.3996 145.9764,24.7436 145.9764,18.7386 M123.5014,1.3676 L135.8164,1.3676 C148.0784,1.3676 154.9854,8.1226 154.9854,18.4866 C154.9854,29.3996 147.6784,36.4066 134.9634,36.4066 L123.5014,36.4066 C122.6004,36.4066 122.2004,36.0066 122.2004,35.1076 L122.2004,2.6666 C122.2004,1.7676 122.6004,1.3676 123.5014,1.3676"
                          id="Fill-28"></path>
                    <path d="M162.0326,1.3666 L183.0596,1.3666 C183.9586,1.3666 184.4086,1.7696 184.4086,2.6686 L184.4086,8.0746 C184.4086,9.0256 183.9586,9.3766 183.0596,9.3766 L170.1926,9.3766 C169.5936,9.3766 169.4426,9.5806 169.4426,10.1286 L169.4426,14.0316 C169.4426,14.6336 169.5936,14.7816 170.1926,14.7816 L181.4056,14.7816 C182.3066,14.7816 182.7066,15.1826 182.7066,16.1336 L182.7066,21.4926 C182.7066,22.3936 182.3066,22.7916 181.4056,22.7916 L170.1926,22.7916 C169.5936,22.7916 169.4426,22.9906 169.4426,23.5446 L169.4426,27.6456 C169.4426,28.1996 169.5936,28.3986 170.1926,28.3986 L183.1076,28.3986 C184.0116,28.3986 184.4596,28.7486 184.4596,29.7006 L184.4596,35.1066 C184.4596,36.0056 184.0116,36.4086 183.1076,36.4086 L162.0326,36.4086 C161.1336,36.4086 160.7306,36.0056 160.7306,35.1066 L160.7306,2.6686 C160.7306,1.7696 161.1336,1.3666 162.0326,1.3666"
                          id="Fill-30"></path>
                    <path d="M210.3697,13.3314 C210.3697,10.4284 208.2667,9.3754 204.2637,9.3754 L200.4567,9.3754 C199.8577,9.3754 199.7067,9.5804 199.7067,10.1284 L199.7067,16.6854 C199.7067,17.2874 199.8577,17.4864 200.4567,17.4864 L204.2637,17.4864 C208.4657,17.4864 210.3697,16.0834 210.3697,13.3314 M192.2987,1.3664 L204.6137,1.3664 C214.4717,1.3664 219.3787,5.2744 219.3787,12.8804 C219.3787,17.8864 216.9767,21.1894 213.3207,23.0434 L221.0837,34.8064 C221.3297,35.1564 221.4337,35.4564 221.4337,35.7084 C221.4337,36.1564 221.0307,36.4084 220.2827,36.4084 L213.5217,36.4084 C212.1217,36.4084 211.4727,36.0044 210.7677,34.9074 L205.1127,25.7974 C204.7627,25.2434 204.4627,25.0924 203.8127,25.0924 L200.4567,25.0924 C199.8577,25.0924 199.7067,25.2434 199.7067,25.8454 L199.7067,35.1064 C199.7067,36.0044 199.3057,36.4084 198.3567,36.4084 L192.2987,36.4084 C191.3947,36.4084 190.9967,36.0044 190.9967,35.1064 L190.9967,2.6684 C190.9967,1.7694 191.3947,1.3664 192.2987,1.3664"
                          id="Fill-32"></path>
                </g>
                <g id="Mark">
                    <path d="M97.204,35.8347 C97.204,31.0367 94.599,26.5647 90.406,24.1657 L57.002,5.0527 C54.938,3.8717 52.587,3.2477 50.204,3.2477 C47.821,3.2477 45.47,3.8717 43.406,5.0527 L10.002,24.1657 C5.809,26.5647 3.204,31.0367 3.204,35.8347 L3.204,74.0607 C3.204,78.8587 5.809,83.3307 10.002,85.7297 L43.406,104.8427 C45.47,106.0237 47.821,106.6477 50.204,106.6477 C52.587,106.6477 54.938,106.0237 57.002,104.8427 L90.406,85.7297 C92.592,84.4787 94.34,82.6627 95.519,80.5327 C96.602,78.5767 97.204,76.3577 97.204,74.0607 L97.204,35.8347 Z"
                          id="Fill-1" fill="#FEFEFE"></path>
                    <path d="M10.4461,27.7705 L45.9821,7.4375 C47.2251,6.7265 48.6131,6.3705 50.0001,6.3705 C51.3871,6.3705 52.7751,6.7265 54.0181,7.4375 L89.5541,27.7705 C92.0401,29.1935 93.5721,31.8215 93.5721,34.6675 L93.5721,46.6775 C87.0201,40.6845 63.5941,19.4475 63.5941,19.4475 C63.3931,19.2635 63.1251,19.1925 62.9181,19.1925 C62.7111,19.1925 62.4431,19.2645 62.2431,19.4475 L32.5851,46.3815 C32.1881,46.7495 31.6291,46.7475 31.2311,46.4355 C30.8741,46.1545 30.7091,45.5825 31.0281,45.0785 L37.4271,35.4755 C37.6571,35.1305 37.6241,34.5765 37.2611,34.2135 L29.7661,26.9915 C29.6141,26.8445 29.3801,26.7005 29.0531,26.7005 C28.7581,26.7005 28.5221,26.8245 28.3721,26.9595 C28.3721,26.9595 11.4891,42.1085 6.4281,46.6775 L6.4281,34.6675 C6.4281,31.8215 7.9601,29.1935 10.4461,27.7705 L10.4461,27.7705 Z M100.0001,34.6675 C100.0001,29.5625 97.2291,24.8055 92.7681,22.2535 L57.2321,1.9205 C55.0361,0.6635 52.5351,-0.0005 50.0001,-0.0005 C47.4651,-0.0005 44.9641,0.6635 42.7681,1.9205 L7.2321,22.2535 C2.7711,24.8055 0.0001,29.5625 0.0001,34.6675 L0.0001,75.3325 C0.0001,80.4375 2.7711,85.1945 7.2321,87.7465 L42.7681,108.0795 C44.9641,109.3355 47.4641,109.9995 50.0001,109.9995 C52.5351,109.9995 55.0361,109.3355 57.2321,108.0795 L92.7681,87.7465 C95.0931,86.4165 96.9541,84.4835 98.2071,82.2185 C99.3591,80.1375 100.0001,77.7765 100.0001,75.3325 L100.0001,34.6675 Z"
                          id="Fill-3" fill="#6D95C0"></path>
                    <path d="M61.0231,71.6728 C64.0751,71.8788 63.2661,73.2088 61.7051,74.8918 C60.7251,75.8288 59.0451,75.3178 58.0911,74.9368 C56.4771,74.2908 59.8061,71.5918 61.0231,71.6728 M59.8731,65.8518 C60.2781,65.1558 63.3371,66.4838 63.7221,67.0178 C66.1381,70.3738 60.9371,69.9648 60.5471,68.7208 C60.3731,68.0848 59.5401,66.4198 59.8731,65.8518 M66.0171,74.6868 C66.4691,74.5768 67.4031,77.4008 66.6971,78.5328 C65.9601,79.8268 64.0391,81.1698 63.4191,79.0648 C62.8841,77.1898 64.1741,75.0668 66.0171,74.6868 M66.5561,64.9998 L66.5881,64.9328 C67.0091,64.0268 67.8161,63.3008 68.9351,62.9848 C69.4031,62.8158 70.2831,65.9608 69.6311,66.8238 C69.0721,67.6728 67.3741,69.5248 66.6141,68.0758 C66.1411,67.0298 66.1491,65.9258 66.5561,64.9998 M73.4531,68.6888 C77.0281,69.3858 73.1171,71.8108 71.1881,71.5468 C68.0001,71.0038 71.3841,68.3118 73.4531,68.6888 M73.3081,77.9758 C73.1801,78.0778 73.0191,78.1798 72.8171,78.2568 C69.9261,79.0968 69.0891,75.9158 68.5761,74.0998 C68.2491,72.9708 75.9211,75.9188 73.3081,77.9758 M42.6391,67.7308 C41.5481,68.9158 37.1241,71.9768 39.9531,72.7418 C43.4831,73.8798 43.7901,67.7358 46.9701,68.2338 C49.1921,68.5758 47.4731,69.9598 46.8131,70.6828 C46.5761,70.9348 44.1111,73.1998 44.4441,73.5748 C45.4721,74.9248 46.9871,74.3498 47.8981,73.3658 C50.2071,70.8408 52.5591,68.1748 55.9371,70.5408 C55.9371,70.5408 56.3261,70.7548 56.5261,71.0008 C56.7291,71.2388 56.6541,71.4128 56.5361,71.5718 L53.8441,74.5058 C53.7561,74.5958 53.6741,74.6848 53.5971,74.7748 L53.3391,75.1158 C52.9481,75.7248 53.0151,76.2688 54.3251,76.4868 C56.9121,76.9638 60.1341,76.8438 57.2631,79.7048 C53.9661,82.9878 53.5961,80.5048 49.5161,80.3668 C48.0191,80.2218 46.9611,81.7848 48.6461,82.3548 C49.4481,82.6328 52.5491,82.8648 52.7841,83.5388 C53.9821,86.4178 47.0441,84.5258 46.5331,84.4218 C45.5921,84.2198 44.3671,84.5248 43.8051,85.4118 C43.0581,86.5968 47.4711,87.1738 47.9571,87.3078 C50.6431,88.0288 46.9471,90.0048 46.0041,91.1968 C45.2881,92.1018 44.0581,94.8088 46.7391,94.0478 C48.3341,93.5998 49.2541,90.5218 50.9911,90.5108 C52.7671,90.4158 51.0971,97.6778 53.9331,94.9968 C55.7791,93.2418 54.0211,90.4808 53.4011,88.3028 C53.1851,87.5268 54.0331,86.0688 54.9851,86.1208 C55.7831,86.0688 56.1291,91.1138 57.0891,91.4048 C59.7251,92.1918 57.8911,86.7698 57.7781,86.3678 C57.3311,84.7958 56.9811,84.3428 57.6111,83.0358 C58.3011,82.0398 60.0891,79.6698 60.8251,79.7878 C61.9451,79.9508 62.1031,84.7138 62.7271,85.1208 C63.1851,85.4248 66.6181,83.1558 67.4151,81.3648 C68.0241,82.4358 68.5801,84.4878 68.6591,85.5318 C68.6351,86.9818 68.1191,87.2298 67.0131,88.4338 C66.7321,88.7418 62.6571,92.7608 65.3661,93.2428 C66.0001,93.3298 68.7911,89.1708 69.6191,89.4678 C70.4061,89.8098 70.7991,92.2418 70.4751,93.1608 L74.6101,90.7948 C72.9221,90.1588 71.4771,89.2418 72.7461,88.1498 C73.4121,87.6328 76.0811,88.7158 76.7341,88.8918 C78.3531,89.2728 78.4621,87.6738 77.0911,86.7848 C73.7661,84.3518 71.9381,87.1268 70.4671,82.7118 C69.8971,80.9968 70.1671,80.1648 70.8161,80.2408 C71.2771,80.2948 73.2491,80.8508 73.2491,80.8508 C74.0241,81.0888 77.1171,82.0758 76.7221,80.6838 L75.2661,75.5528 C80.3191,74.1158 81.2871,77.8778 82.2961,81.4528 C82.6671,82.7408 83.7621,83.9358 85.2871,83.1918 C85.7531,83.0068 84.5691,79.8758 84.4701,79.5438 C84.2051,78.6018 83.2921,76.5928 85.4301,77.2848 C87.7141,78.0178 86.9171,81.3278 87.8771,83.2038 L89.6051,82.2148 C89.9471,82.0188 90.2691,81.7988 90.5741,81.5598 C90.2011,80.4868 89.6991,79.3898 89.5261,78.7818 C90.2821,78.6428 91.4171,78.9928 92.5461,79.2998 C93.0571,78.4228 93.3971,77.4498 93.5421,76.4308 C92.1751,76.0728 90.7781,75.8358 90.4001,75.5998 C90.9101,74.5568 92.1731,73.1558 93.1581,72.4148 C93.7911,71.9388 93.6771,71.4348 93.2551,71.1428 C90.9321,69.7938 89.7241,72.2088 87.8901,74.0868 C86.8431,75.2118 83.8251,75.1238 85.3481,73.3138 C85.8771,72.6908 88.9801,70.2378 87.4581,69.7178 C85.0621,68.9948 84.4381,70.2688 83.1021,72.0788 C81.6061,74.1148 74.5931,73.7408 77.1861,71.1058 C77.5981,70.6738 80.2391,68.2828 79.9621,67.7118 C79.7941,67.2798 77.4271,66.9768 76.1791,66.6628 C75.8101,66.5658 73.9141,66.2128 74.6211,65.3758 C75.7271,64.1428 76.8381,61.9918 78.5851,62.3158 C80.1961,62.6208 81.8111,62.9178 83.4251,63.2158 C84.4901,63.4078 84.8981,62.7688 85.5251,61.8758 C86.3291,60.7968 82.4351,60.4778 82.0481,60.4168 C79.8031,60.0688 79.9471,58.1548 82.2411,57.9518 C83.2761,57.7258 85.3211,58.6578 86.3601,58.8918 C87.3931,59.1218 88.9211,59.3308 89.4101,57.9358 C89.9711,56.3298 84.9131,56.3548 84.1531,55.6618 C84.8291,53.6018 89.2471,52.3728 87.3091,49.8768 C86.1951,48.4738 84.4581,51.1518 83.7891,51.8248 C81.6791,53.9688 81.1221,52.4288 80.6881,50.4268 C80.4231,49.2058 80.5501,48.0928 79.8771,48.2578 C76.7201,49.1918 78.9241,52.9068 79.5531,55.2478 C79.8681,56.4168 79.3311,57.1748 78.2481,57.3308 C77.5591,57.3238 76.5651,53.4958 76.2531,52.9228 C75.6631,51.7758 74.0661,53.4848 74.1591,53.9208 L75.3071,57.9658 C75.9861,60.3858 74.4001,63.0338 71.6911,63.7868 C71.5101,63.1328 70.5811,58.4098 69.9021,58.5238 C69.7111,58.5528 69.5001,58.6628 69.2731,58.8268 C68.2341,59.6108 67.4101,60.4828 66.4951,61.5738 C65.6741,62.2918 64.9651,62.5428 64.6251,61.3328 C64.6251,61.3328 63.5721,57.3768 64.9221,55.8978 L67.7641,52.7998 C68.0341,52.4988 67.3841,50.2078 66.3421,50.9668 C65.8061,51.3388 63.3301,54.1638 62.5061,53.9788 C61.8991,53.7338 61.7951,52.1018 62.3491,51.5618 C64.0851,49.8688 67.5941,47.2438 65.1051,45.1108 C64.8071,44.9148 64.5431,45.4388 64.3341,45.6978 C62.7341,47.6808 61.2201,50.0728 60.1031,46.6008 C59.8081,45.6988 59.4441,42.4938 57.8341,43.2788 C55.6681,44.3358 57.2811,47.0488 58.0791,48.9698 C58.2061,49.2748 58.3371,49.6768 58.0531,49.8648 C57.0631,50.1428 52.5551,47.8478 52.3351,49.5338 C52.1451,50.9998 53.6051,51.4998 54.6311,51.7578 C55.6641,52.0168 57.7851,52.1868 58.7331,52.7698 C60.6921,53.9818 59.9601,55.7568 57.7981,55.0588 C57.4241,54.9398 53.8021,53.4748 54.0361,54.7998 C54.1941,55.8798 54.2731,56.6338 55.3101,56.9408 C56.8861,57.3998 58.4621,57.8598 60.0381,58.3108 C61.7451,58.8068 61.7701,61.2278 62.2051,62.8258 C62.2341,62.9488 62.2611,63.1078 62.1271,63.1258 C60.5601,63.0548 55.7821,61.6128 56.1201,62.8038 L57.1121,66.4178 C58.2441,69.9368 51.8111,67.1198 51.3901,64.6288 C51.0101,62.4108 51.0241,60.9928 48.5591,60.5618 C46.9661,60.3428 48.6361,63.9278 48.8281,64.7228 C49.3751,67.0238 46.6401,65.7468 46.2091,64.2708 C45.4151,61.7698 45.0291,58.9448 42.4441,59.1708 C41.9751,59.2148 42.3131,60.2138 42.4751,60.7198 C42.8711,61.9548 43.3031,63.1868 43.2871,64.4948 C42.1701,64.5988 35.2721,61.7928 36.7061,65.3728 C37.3441,66.9758 41.3061,66.7228 42.6391,67.7308"
                          id="Fill-6" fill="#FEFEFE"></path>
                </g>
            </g>
        </g>
    </g>
</svg>