<?xml version="1.0" encoding="UTF-8" standalone="no"?>
<svg width="388px" height="111px" viewBox="0 0 388 111" version="1.1" xmlns="http://www.w3.org/2000/svg"
     xmlns:xlink="http://www.w3.org/1999/xlink">
    <!-- Generator: Sketch 39.1 (31720) - http://www.bohemiancoding.com/sketch -->
    <title>TRP_Horizontal_white</title>
    <desc>Created with Sketch.</desc>
    <defs></defs>
    <g id="Page-1" stroke="none" stroke-width="1" fill="none" fill-rule="evenodd">
        <g id="TRP_Horizontal_white">
            <g id="Logo" transform="translate(0.000000, 1.000000)">
                <g id="Text" transform="translate(119.000000, 22.000000)" fill="#FFFFFF">
                    <path d="M9.9422,53.794 C9.9422,52.116 8.8152,51.439 6.5382,51.439 L4.9092,51.439 C4.6102,51.439 4.5342,51.541 4.5342,51.815 L4.5342,55.872 C4.5342,56.146 4.6102,56.246 4.9092,56.246 L6.5382,56.246 C8.7412,56.246 9.9422,55.445 9.9422,53.794 M0.8282,47.433 L6.7132,47.433 C11.8452,47.433 14.4482,49.512 14.4482,53.767 C14.4482,58.051 11.6452,60.252 6.5382,60.252 L4.9092,60.252 C4.6102,60.252 4.5342,60.354 4.5342,60.629 L4.5342,64.31 C4.5342,64.759 4.3342,64.96 3.8582,64.96 L0.8282,64.96 C0.3782,64.96 0.1772,64.759 0.1772,64.31 L0.1772,48.084 C0.1772,47.634 0.3782,47.433 0.8282,47.433"
                          id="Fill-8"></path>
                    <path d="M26.6283,53.4179 C26.6283,51.9659 25.5763,51.4389 23.5743,51.4389 L21.6703,51.4389 C21.3713,51.4389 21.2963,51.5419 21.2963,51.8159 L21.2963,55.0959 C21.2963,55.3969 21.3713,55.4959 21.6703,55.4959 L23.5743,55.4959 C25.6763,55.4959 26.6283,54.7939 26.6283,53.4179 M17.5893,47.4329 L23.7493,47.4329 C28.6823,47.4329 31.1343,49.3879 31.1343,53.1929 C31.1343,55.6959 29.9333,57.3489 28.1073,58.2749 L31.9873,64.1589 C32.1133,64.3339 32.1623,64.4839 32.1623,64.6099 C32.1623,64.8339 31.9613,64.9599 31.5863,64.9599 L28.2063,64.9599 C27.5053,64.9599 27.1803,64.7589 26.8303,64.2099 L23.9983,59.6529 C23.8233,59.3759 23.6733,59.3009 23.3493,59.3009 L21.6703,59.3009 C21.3713,59.3009 21.2963,59.3759 21.2963,59.6769 L21.2963,64.3089 C21.2963,64.7589 21.0943,64.9599 20.6193,64.9599 L17.5893,64.9599 C17.1403,64.9599 16.9383,64.7589 16.9383,64.3089 L16.9383,48.0839 C16.9383,47.6349 17.1403,47.4329 17.5893,47.4329"
                          id="Fill-10"></path>
                    <path d="M47.3561,56.2221 C47.3561,53.1161 45.2291,51.1141 42.4731,51.1141 C39.6951,51.1141 37.6171,53.1431 37.6171,56.2221 C37.6171,59.2761 39.6701,61.2801 42.4491,61.2801 C45.2021,61.2801 47.3561,59.2521 47.3561,56.2221 M42.4731,47.1081 C47.9321,47.1081 51.8621,50.8881 51.8621,56.1981 C51.8621,61.5291 47.9081,65.2861 42.4241,65.2861 C37.0401,65.2861 33.1101,61.5541 33.1101,56.2461 C33.1101,50.9151 37.0671,47.1081 42.4731,47.1081"
                          id="Fill-12"></path>
                    <path d="M54.1135,61.1816 C54.3895,61.1816 54.7645,61.2576 55.2155,61.2576 C56.3175,61.2576 57.0685,60.4046 57.0685,58.7776 L57.0685,48.0836 C57.0685,47.6346 57.2695,47.4326 57.7455,47.4326 L60.7735,47.4326 C61.2235,47.4326 61.4255,47.6346 61.4255,48.0836 L61.4255,59.0776 C61.4255,62.8846 59.8725,65.2636 55.7905,65.2636 C55.1155,65.2636 54.3385,65.2116 53.8625,65.0856 C53.3885,64.9626 53.2875,64.7606 53.3395,64.2606 L53.6135,61.8066 C53.6635,61.3306 53.7885,61.1816 54.1135,61.1816"
                          id="Fill-14"></path>
                    <path d="M66.2031,47.4333 L76.7191,47.4333 C77.1701,47.4333 77.3951,47.6353 77.3951,48.0843 L77.3951,50.7883 C77.3951,51.2643 77.1701,51.4393 76.7191,51.4393 L70.2851,51.4393 C69.9841,51.4393 69.9081,51.5413 69.9081,51.8163 L69.9081,53.7683 C69.9081,54.0693 69.9841,54.1433 70.2851,54.1433 L75.8931,54.1433 C76.3421,54.1433 76.5441,54.3433 76.5441,54.8193 L76.5441,57.4993 C76.5441,57.9503 76.3421,58.1493 75.8931,58.1493 L70.2851,58.1493 C69.9841,58.1493 69.9081,58.2493 69.9081,58.5263 L69.9081,60.5773 C69.9081,60.8543 69.9841,60.9543 70.2851,60.9543 L76.7431,60.9543 C77.1941,60.9543 77.4201,61.1293 77.4201,61.6053 L77.4201,64.3093 C77.4201,64.7583 77.1941,64.9603 76.7431,64.9603 L66.2031,64.9603 C65.7521,64.9603 65.5521,64.7583 65.5521,64.3093 L65.5521,48.0843 C65.5521,47.6353 65.7521,47.4333 66.2031,47.4333"
                          id="Fill-16"></path>
                    <path d="M95.6612,62.3552 C95.6612,62.5312 95.5362,62.7062 95.2842,62.9322 C93.5342,64.3842 91.2542,65.2862 88.7272,65.2862 C83.3932,65.2862 79.4112,61.4802 79.4112,56.2972 C79.4112,50.9892 83.4172,47.1082 88.9262,47.1082 C91.4802,47.1082 93.6822,48.0352 95.3862,49.4632 C95.5852,49.6382 95.6852,49.7882 95.6852,49.9392 C95.6852,50.0872 95.6372,50.2132 95.5112,50.3882 L94.0592,52.4412 C93.9082,52.6672 93.7582,52.7672 93.5832,52.7672 C93.4322,52.7672 93.2572,52.6922 93.0832,52.5662 C91.9322,51.7402 90.5292,51.1142 88.9022,51.1142 C86.0222,51.1142 83.9202,53.1682 83.9202,56.2222 C83.9202,59.1762 85.9982,61.2802 88.9022,61.2802 C90.5792,61.2802 91.9562,60.7042 93.1332,59.8022 C93.3322,59.6522 93.4842,59.5772 93.6332,59.5772 C93.8082,59.5772 93.9342,59.6762 94.0832,59.8782 L95.5112,61.9292 C95.6122,62.0812 95.6612,62.2302 95.6612,62.3552"
                          id="Fill-18"></path>
                    <path d="M101.6872,51.4394 L97.7312,51.4394 C97.2802,51.4394 97.0792,51.2404 97.0792,50.7884 L97.0792,48.0844 C97.0792,47.6344 97.2802,47.4334 97.7312,47.4334 L110.7512,47.4334 C111.2022,47.4334 111.4012,47.6344 111.4012,48.0844 L111.4012,50.7884 C111.4012,51.2404 111.2022,51.4394 110.7512,51.4394 L106.7952,51.4394 C106.5192,51.4394 106.4182,51.5414 106.4182,51.8164 L106.4182,64.3094 C106.4182,64.7584 106.2202,64.9604 105.7692,64.9604 L102.7132,64.9604 C102.2632,64.9604 102.0642,64.7584 102.0642,64.3094 L102.0642,51.8164 C102.0642,51.5414 101.9612,51.4394 101.6872,51.4394"
                          id="Fill-20"></path>
                    <path d="M9.3783,9.3759 L1.4693,9.3759 C0.5673,9.3759 0.1693,8.9779 0.1693,8.0739 L0.1693,2.6679 C0.1693,1.7689 0.5673,1.3659 1.4693,1.3659 L27.5043,1.3659 C28.4033,1.3659 28.8063,1.7689 28.8063,2.6679 L28.8063,8.0739 C28.8063,8.9779 28.4033,9.3759 27.5043,9.3759 L19.5923,9.3759 C19.0433,9.3759 18.8443,9.5799 18.8443,10.1289 L18.8443,35.1089 C18.8443,36.0079 18.4413,36.4109 17.5393,36.4109 L11.4303,36.4109 C10.5313,36.4109 10.1313,36.0079 10.1313,35.1089 L10.1313,10.1289 C10.1313,9.5799 9.9293,9.3759 9.3783,9.3759"
                          id="Fill-22"></path>
                    <path d="M52.2409,13.3323 C52.2409,10.4293 50.1379,9.3763 46.1349,9.3763 L42.3269,9.3763 C41.7299,9.3763 41.5789,9.5803 41.5789,10.1293 L41.5789,16.6863 C41.5789,17.2883 41.7299,17.4873 42.3269,17.4873 L46.1349,17.4873 C50.3369,17.4873 52.2409,16.0843 52.2409,13.3323 M34.1679,1.3663 L46.4849,1.3663 C56.3479,1.3663 61.2509,5.2743 61.2509,12.8813 C61.2509,17.8873 58.8479,21.1913 55.1969,23.0443 L62.9559,34.8093 C63.2079,35.1593 63.3059,35.4593 63.3059,35.7113 C63.3059,36.1593 62.9049,36.4113 62.1549,36.4113 L55.3959,36.4113 C53.9939,36.4113 53.3439,36.0083 52.6439,34.9103 L46.9829,25.7993 C46.6329,25.2453 46.3329,25.0943 45.6839,25.0943 L42.3269,25.0943 C41.7299,25.0943 41.5789,25.2453 41.5789,25.8473 L41.5789,35.1093 C41.5789,36.0083 41.1759,36.4113 40.2269,36.4113 L34.1679,36.4113 C33.2689,36.4113 32.8659,36.0083 32.8659,35.1093 L32.8659,2.6683 C32.8659,1.7693 33.2689,1.3663 34.1679,1.3663"
                          id="Fill-24"></path>
                    <path d="M86.9473,22.7936 C86.9473,22.6926 86.9473,22.5416 86.8493,22.3956 L83.5953,15.4836 L80.3393,22.3956 C80.2413,22.5416 80.1883,22.6926 80.1883,22.7936 C80.1883,23.0456 80.3923,23.1436 80.7423,23.1436 L86.3983,23.1436 C86.8013,23.1436 86.9473,23.0456 86.9473,22.7936 M83.7443,0.6166 C84.6933,0.6166 85.3983,1.2686 86.3983,3.2676 L102.0683,34.7596 C102.2673,35.1096 102.3153,35.4096 102.3153,35.6586 C102.3153,36.2106 101.9173,36.4116 101.2173,36.4116 L94.8593,36.4116 C93.6083,36.4116 93.2073,36.2106 92.7033,35.1096 L90.7523,30.9546 C90.5053,30.4056 90.3543,30.3026 89.8003,30.3026 L77.3883,30.3026 C76.8343,30.3026 76.6863,30.4056 76.4363,30.9546 L74.5333,35.1096 C74.0343,36.2106 73.6313,36.4116 72.4303,36.4116 L66.3243,36.4116 C65.6213,36.4116 65.1733,36.2106 65.1733,35.6586 C65.1733,35.4096 65.2233,35.1096 65.4223,34.7596 L81.0923,3.2676 C82.0923,1.2686 82.7423,0.6166 83.7443,0.6166"
                          id="Fill-26"></path>
                    <path d="M107.2316,1.366 L113.2906,1.366 C114.2426,1.366 114.6396,1.769 114.6396,2.668 L114.6396,35.109 C114.6396,36.008 114.2426,36.411 113.2906,36.411 L107.2316,36.411 C106.3296,36.411 105.9296,36.008 105.9296,35.109 L105.9296,2.668 C105.9296,1.769 106.3296,1.366 107.2316,1.366"
                          id="Fill-28"></path>
                    <path d="M123.5335,1.366 L129.5925,1.366 C130.5445,1.366 130.9445,1.769 130.9445,2.668 L130.9445,27.648 C130.9445,28.202 131.0955,28.401 131.6945,28.401 L144.5625,28.401 C145.4615,28.401 145.8645,28.804 145.8645,29.703 L145.8645,35.109 C145.8645,36.008 145.4615,36.411 144.5625,36.411 L123.5335,36.411 C122.6345,36.411 122.2315,36.008 122.2315,35.109 L122.2315,2.668 C122.2315,1.769 122.6345,1.366 123.5335,1.366"
                          id="Fill-30"></path>
                    <path d="M184.0107,13.3323 C184.0107,10.4293 181.9077,9.3763 177.9047,9.3763 L174.0967,9.3763 C173.4977,9.3763 173.3467,9.5803 173.3467,10.1293 L173.3467,16.6863 C173.3467,17.2883 173.4977,17.4873 174.0967,17.4873 L177.9047,17.4873 C182.1067,17.4873 184.0107,16.0843 184.0107,13.3323 M165.9377,1.3663 L178.2547,1.3663 C188.1127,1.3663 193.0207,5.2743 193.0207,12.8813 C193.0207,17.8873 190.6177,21.1913 186.9617,23.0443 L194.7257,34.8093 C194.9717,35.1593 195.0757,35.4593 195.0757,35.7113 C195.0757,36.1593 194.6727,36.4113 193.9247,36.4113 L187.1637,36.4113 C185.7637,36.4113 185.1137,36.0083 184.4087,34.9103 L178.7527,25.7993 C178.4027,25.2453 178.1027,25.0943 177.4537,25.0943 L174.0967,25.0943 C173.4977,25.0943 173.3467,25.2453 173.3467,25.8473 L173.3467,35.1093 C173.3467,36.0083 172.9457,36.4113 171.9967,36.4113 L165.9377,36.4113 C165.0337,36.4113 164.6357,36.0083 164.6357,35.1093 L164.6357,2.6683 C164.6357,1.7693 165.0337,1.3663 165.9377,1.3663"
                          id="Fill-32"></path>
                    <path d="M200.0607,1.366 L206.1197,1.366 C207.0717,1.366 207.4717,1.769 207.4717,2.668 L207.4717,20.69 C207.4717,26.046 209.8767,29.05 214.5807,29.05 C219.2367,29.05 221.7397,26.046 221.7397,20.69 L221.7397,2.668 C221.7397,1.769 222.1397,1.366 223.0417,1.366 L229.0997,1.366 C230.0467,1.366 230.4497,1.769 230.4497,2.668 L230.4497,21.292 C230.4497,31.856 223.7417,37.061 214.2777,37.061 C205.2147,37.061 198.7587,32.153 198.7587,21.39 L198.7587,2.668 C198.7587,1.769 199.1617,1.366 200.0607,1.366"
                          id="Fill-34"></path>
                    <path d="M239.0352,0.7156 C239.7352,0.7156 240.4352,1.2166 241.6362,2.3676 L259.6582,19.2896 L259.6582,2.6676 C259.6582,1.7686 260.0612,1.3656 260.9632,1.3656 L267.0162,1.3656 C267.9202,1.3656 268.3712,1.7686 268.3712,2.6676 L268.3712,35.1106 C268.3712,36.3626 268.0212,37.0626 267.1672,37.0626 C266.4672,37.0626 265.7672,36.5616 264.5662,35.4106 L246.5442,18.4886 L246.5442,35.1106 C246.5442,36.0076 246.1442,36.4106 245.1922,36.4106 L239.1332,36.4106 C238.2342,36.4106 237.8312,36.0076 237.8312,35.1106 L237.8312,2.6676 C237.8312,1.4186 238.1812,0.7156 239.0352,0.7156"
                          id="Fill-36"></path>
                </g>
                <g id="Mark">
                    <path d="M97.204,35.8347 C97.204,31.0367 94.599,26.5647 90.406,24.1657 L57.002,5.0527 C54.938,3.8717 52.587,3.2477 50.204,3.2477 C47.821,3.2477 45.47,3.8717 43.406,5.0527 L10.002,24.1657 C5.809,26.5647 3.204,31.0367 3.204,35.8347 L3.204,74.0607 C3.204,78.8587 5.809,83.3307 10.002,85.7297 L43.406,104.8427 C45.47,106.0237 47.821,106.6477 50.204,106.6477 C52.587,106.6477 54.938,106.0237 57.002,104.8427 L90.406,85.7297 C92.592,84.4787 94.34,82.6627 95.519,80.5327 C96.602,78.5767 97.204,76.3577 97.204,74.0607 L97.204,35.8347 Z"
                          id="Fill-1" fill="#FEFEFE"></path>
                    <path d="M10.4461,27.7705 L45.9821,7.4375 C47.2251,6.7265 48.6131,6.3705 50.0001,6.3705 C51.3871,6.3705 52.7751,6.7265 54.0181,7.4375 L89.5541,27.7705 C92.0401,29.1935 93.5721,31.8215 93.5721,34.6675 L93.5721,46.6775 C87.0201,40.6845 63.5941,19.4475 63.5941,19.4475 C63.3931,19.2635 63.1251,19.1925 62.9181,19.1925 C62.7111,19.1925 62.4431,19.2645 62.2431,19.4475 L32.5851,46.3815 C32.1881,46.7495 31.6291,46.7475 31.2311,46.4355 C30.8741,46.1545 30.7091,45.5825 31.0281,45.0785 L37.4271,35.4755 C37.6571,35.1305 37.6241,34.5765 37.2611,34.2135 L29.7661,26.9915 C29.6141,26.8445 29.3801,26.7005 29.0531,26.7005 C28.7581,26.7005 28.5221,26.8245 28.3721,26.9595 C28.3721,26.9595 11.4891,42.1085 6.4281,46.6775 L6.4281,34.6675 C6.4281,31.8215 7.9601,29.1935 10.4461,27.7705 L10.4461,27.7705 Z M100.0001,34.6675 C100.0001,29.5625 97.2291,24.8055 92.7681,22.2535 L57.2321,1.9205 C55.0361,0.6635 52.5351,-0.0005 50.0001,-0.0005 C47.4651,-0.0005 44.9641,0.6635 42.7681,1.9205 L7.2321,22.2535 C2.7711,24.8055 0.0001,29.5625 0.0001,34.6675 L0.0001,75.3325 C0.0001,80.4375 2.7711,85.1945 7.2321,87.7465 L42.7681,108.0795 C44.9641,109.3355 47.4641,109.9995 50.0001,109.9995 C52.5351,109.9995 55.0361,109.3355 57.2321,108.0795 L92.7681,87.7465 C95.0931,86.4165 96.9541,84.4835 98.2071,82.2185 C99.3591,80.1375 100.0001,77.7765 100.0001,75.3325 L100.0001,34.6675 Z"
                          id="Fill-3" fill="#C06027"></path>
                    <path d="M59.9875,49.0353 C59.4175,48.9603 59.4535,48.9773 59.4535,48.9773 C59.4535,48.9773 57.4365,48.7683 57.2235,48.6823 C57.2235,48.6823 59.3015,46.9913 60.0285,46.2043 C60.0165,46.8753 59.9695,48.3503 59.9875,49.0353 M66.3605,56.1623 C66.3895,56.0793 66.6925,54.6833 66.7455,54.4193 C67.9545,54.1683 69.0085,53.7493 69.6145,53.4813 C70.3105,53.1493 72.7515,51.7683 72.8985,51.7303 C73.0455,51.6923 73.5225,51.6313 73.5225,51.6313 C73.8155,51.7073 74.4085,51.6473 74.4905,51.6283 C74.6695,51.5873 75.4975,51.3663 75.6525,51.2543 C75.8835,51.0883 75.7665,50.7943 75.7715,50.7463 C75.7765,50.6993 75.9175,50.5283 75.9265,50.3213 C75.9345,50.1213 75.7405,49.9743 75.7645,49.9493 C75.7885,49.9233 75.8455,49.7823 75.8725,49.6873 C75.9005,49.5903 75.8345,49.4803 75.6725,49.3623 C75.5115,49.2443 75.5715,49.2123 75.5635,49.1793 C75.5565,49.1453 75.6345,48.9903 75.6695,48.8083 C75.7045,48.6263 75.4895,48.4843 75.2625,48.4203 C75.0345,48.3553 74.6975,48.5233 74.6465,48.4933 C74.5955,48.4623 74.6545,48.3733 74.8755,48.1203 C75.1235,47.8343 74.6555,47.7193 74.4225,47.7983 C74.2295,47.8643 73.8015,48.0563 73.5005,48.3893 C73.2005,48.7223 72.9255,48.9853 72.8315,49.3143 C72.7385,49.6423 72.2825,49.9563 72.2825,49.9563 C72.2825,49.9563 70.7425,50.5333 69.6885,50.8193 C68.2415,51.2113 67.3115,51.4643 67.2535,51.5163 C67.3295,51.0453 67.3865,50.6313 67.3925,50.5723 C67.4125,50.3603 67.6285,49.0743 67.9125,48.6743 C68.3545,48.0533 68.8205,47.7973 68.8205,46.9363 C68.8205,46.3623 68.1895,45.1763 67.7785,44.3903 C67.5335,43.9213 67.3395,43.4333 67.3395,43.4333 L67.1935,41.8853 C67.1935,41.8853 67.2585,40.9743 67.2905,40.8713 C67.3235,40.7683 67.4765,40.5903 67.7815,40.4703 C68.0875,40.3513 69.0225,40.5043 69.0225,40.5043 C69.3335,40.5463 69.5285,40.2373 69.5985,40.0373 C69.6695,39.8363 69.5315,39.4873 69.5235,39.4063 C69.5145,39.3263 69.5945,39.1893 69.6845,39.1343 C69.7745,39.0783 69.7265,38.8823 69.7265,38.8823 L69.4585,38.6653 L69.4005,38.6033 L69.7535,38.3653 C69.7535,38.3653 69.8285,38.2933 69.7565,38.1663 C69.7205,38.1033 69.7245,37.8863 69.7965,37.8503 C69.8675,37.8143 70.0905,37.6223 70.3555,37.4343 C70.6225,37.2473 70.3885,37.0973 70.3885,37.0973 C70.3885,37.0973 69.7505,36.2053 69.7115,36.1373 C69.6725,36.0693 69.6335,35.7673 69.6685,35.6433 C69.7035,35.5183 69.7195,35.3493 69.7195,35.3493 C69.6925,35.1553 69.2195,34.1933 69.1165,34.0773 C69.0155,33.9613 68.7115,33.3563 68.7195,33.2723 C68.7275,33.1863 68.6455,32.8543 68.6055,32.5783 C68.5635,32.3033 67.4415,31.9773 67.1785,31.8883 C66.9155,31.7993 65.3615,31.7363 64.6335,31.7723 C63.9065,31.8093 63.4165,32.2103 62.6225,32.9433 C62.4515,33.1023 62.3035,33.2913 62.1745,33.4883 C62.1035,33.4773 61.9835,33.4113 61.9295,33.5513 C61.9255,33.5513 61.6565,33.4953 61.4895,33.4753 C61.0305,33.2173 60.0875,32.8133 59.3455,32.8813 C58.3945,32.9673 57.4335,33.2203 56.9945,33.2343 C56.4905,33.2513 55.1695,34.1563 55.2395,34.2203 C55.3285,34.3013 56.6195,33.7113 57.4045,33.9063 C57.8925,34.0283 58.2655,33.9453 58.5195,33.9893 C57.3275,34.5363 55.9695,35.5843 55.3775,37.7523 C55.3775,37.7523 55.2435,38.2723 55.0495,38.6883 C55.0495,38.6883 54.8715,39.1053 54.3515,39.5373 C53.7025,39.9863 54.7115,39.5303 54.7115,39.5303 C55.0425,39.2913 56.0665,38.9413 56.2735,38.2333 C56.5845,37.1703 57.1105,36.9263 57.1105,36.9263 C57.1105,36.9263 56.6065,37.6113 56.8295,38.0493 C56.9955,38.3773 57.1995,38.6133 57.1995,38.6133 C57.4815,39.0023 57.4505,39.5003 57.4505,39.5003 C57.5825,39.5473 57.8675,38.5733 57.7955,38.1763 C57.7095,37.7023 57.7035,37.6943 57.8095,37.4003 C57.8975,37.1563 58.2305,36.9783 58.4685,36.8433 C58.6015,36.7763 58.9875,36.6253 59.3225,36.4013 C59.3225,36.4013 60.4715,35.6353 60.7595,35.4133 C60.7595,35.4133 60.9535,35.2273 61.2355,34.9413 C61.2355,34.9413 61.3935,34.8363 61.4965,34.7353 C61.4795,34.8163 61.4885,34.9153 61.5025,34.9253 C61.5115,34.9303 61.5255,34.9393 61.5445,34.9473 C61.5275,35.2103 61.5285,35.8143 61.6085,36.4083 C61.6735,36.6863 61.7575,36.8643 61.8165,37.1083 C61.8575,37.2743 62.2755,37.9833 62.5525,38.3933 C62.8305,38.8023 63.1425,38.6203 63.3255,38.8293 C63.5095,39.0383 63.4905,39.1863 63.4905,39.1863 C63.4905,39.1863 63.4495,40.1413 63.3655,40.4953 C63.2835,40.8503 62.6695,40.9623 62.6695,40.9623 C62.6325,40.9893 62.5915,41.0273 62.5505,41.0663 C62.4365,41.0433 62.3255,41.0323 62.2275,41.0593 C62.0745,41.1003 61.7905,41.2233 61.4555,41.3913 C61.4555,41.3913 59.9805,41.9143 58.8295,43.4723 C58.6125,43.6803 58.3415,43.9803 58.2495,44.0593 C58.1115,44.1783 54.4255,47.0103 53.5305,49.0793 C53.5305,49.0793 53.1175,50.1013 53.8125,50.4313 C54.5075,50.7633 57.3625,51.2363 58.0075,51.2973 C58.2785,51.3243 59.2035,51.3473 60.1825,51.3663 C60.2105,52.5153 59.6725,55.2723 59.5835,55.6203 C59.5245,55.8453 59.2315,56.1203 59.0005,56.4843 C58.8135,56.4603 57.8165,57.1993 57.2915,57.6723 C56.9235,58.0043 56.0985,59.3583 55.8315,60.6573 C55.7095,61.4653 55.3255,62.4703 55.0935,62.9473 C54.5495,64.3243 54.1395,64.6663 53.9255,65.1363 C53.7725,65.4233 53.1295,66.4143 52.9475,66.6483 C51.9965,67.8753 51.7545,68.3963 51.2565,69.4033 C50.9405,70.0423 50.6215,71.0363 50.2045,71.0013 C49.2575,70.9233 48.3805,70.1133 45.7525,70.4693 C44.5285,70.6353 44.0275,70.7823 42.4925,70.8663 C41.4195,70.9253 39.4325,70.7913 39.1345,70.6953 C39.0325,70.6623 38.7005,70.6093 38.6685,70.5723 C38.5625,70.4553 38.4115,70.2543 38.2185,70.0243 C38.0245,69.7933 37.7115,69.3003 37.5155,69.1313 C37.3195,68.9603 36.9665,68.6533 36.3765,69.1303 C35.7855,69.6063 35.5165,70.4023 34.7915,71.2013 C34.0675,72.0023 33.3905,72.2663 33.2195,72.3853 C32.9575,72.5673 32.5645,73.1073 32.5615,73.1103 C32.5605,73.1083 32.1045,73.8573 32.0535,73.9903 C32.0035,74.1243 31.7475,74.7043 31.7615,75.1323 C31.7745,75.5593 31.9115,76.4643 32.6185,76.3373 C33.3265,76.2103 33.9515,75.0683 33.9515,75.0683 C33.9515,75.0683 34.2015,74.7443 34.4815,74.6233 C34.7635,74.5023 35.1085,74.3543 35.3685,74.3453 C35.6285,74.3363 35.7265,74.2073 35.9855,74.3503 C36.2435,74.4933 36.3585,74.6283 36.4995,74.7503 C36.6415,74.8733 37.0235,75.0413 36.9045,74.7373 C36.7835,74.4333 36.4795,74.0273 36.5825,73.9173 C36.6875,73.8073 37.2895,73.5993 37.4685,73.6263 C37.6485,73.6533 42.6075,73.9283 44.9045,74.3373 C46.9275,74.6983 49.3355,74.9073 50.4655,75.2183 C51.5965,75.5293 52.2745,74.9103 52.9745,74.2913 C53.6745,73.6723 54.4815,73.0023 55.4825,72.2043 C55.9515,71.8303 56.8315,70.9033 57.6985,69.9213 C59.3485,68.1733 60.7575,66.4143 61.2195,65.8263 C61.8295,66.6653 62.9285,68.0713 64.1695,69.1643 C65.4705,70.3103 68.4035,72.9403 68.3865,73.4013 L68.4125,73.3913 C68.2915,74.0053 67.6075,74.7903 67.3255,77.2023 C67.1535,78.6833 67.8125,80.2493 67.9815,81.8623 C67.9815,81.8623 68.2545,85.0563 67.9805,85.7873 C67.9435,85.8873 67.7905,85.8553 67.7605,85.8933 C67.6625,86.0163 67.7065,86.1223 67.6765,86.3653 L67.7035,86.3683 C67.6595,86.5443 67.5875,86.7563 67.5775,86.7853 C67.5285,86.9353 67.4285,87.1673 67.3245,87.4483 C67.2205,87.7313 66.9485,88.2473 66.8985,88.5023 C66.8475,88.7573 66.7565,89.2153 67.4635,89.4913 C68.1705,89.7673 68.9945,89.6063 70.0485,89.8383 C71.1025,90.0693 71.6685,90.5263 71.8565,90.6153 C72.1445,90.7523 72.8085,90.8253 72.8125,90.8263 C72.8115,90.8283 73.6875,90.8523 73.8295,90.8293 C73.9705,90.8073 74.6005,90.7413 74.9645,90.5163 C75.3295,90.2933 76.0465,89.7253 75.5855,89.1743 C75.1235,88.6233 73.8225,88.6473 73.8225,88.6473 C73.8225,88.6473 73.4165,88.5913 73.1725,88.4083 C72.9275,88.2243 72.6275,87.9973 72.4905,87.7773 C72.3535,87.5553 72.1935,87.5343 72.1885,87.2383 C72.1845,86.9433 72.2445,86.7763 72.2815,86.5933 C72.3175,86.4093 72.2725,85.9943 72.0695,86.2483 C71.8645,86.5043 71.6635,86.9693 71.5165,86.9343 C71.4355,86.9153 71.2545,86.7783 71.0965,86.6313 C71.1125,86.3273 70.7505,85.2823 70.7845,84.0693 C70.8795,83.2953 70.9765,82.5683 71.0365,82.1963 C71.2015,81.1513 71.8175,77.6423 71.9885,76.5583 C72.1575,75.4793 72.1365,75.0013 72.5165,74.0203 C72.8615,73.1273 73.0965,72.4183 72.7015,71.4433 L72.6955,71.4453 C72.3255,70.5073 71.0395,68.1083 70.4345,67.1733 C68.6545,64.4263 66.5455,62.0363 65.8455,61.0753 C65.7085,60.8863 65.4665,60.4763 65.3225,60.0193 C65.1665,59.5223 65.5685,58.7773 65.5685,58.7773 C66.0105,57.8023 66.3605,56.1623 66.3605,56.1623"
                          id="Fill-6" fill="#FEFEFE"></path>
                </g>
            </g>
        </g>
    </g>
</svg>